# File created by Blade
# Date/Time:  Tue Sep 30 19:11:40 2014
#---------------------------------------------------------
:version 1.10
:name HOM
:units
  mass 1.0
  length 1.000000
  angle deg
:documentation
     Acclaim Skeleton File
:root
   axis xyz
   order TX TY TZ RX RY RZ
   position 0.000000 0.000000 0.000000
   orientation 0 0 0
:bonedata
   begin
      id 1
      name Spine_dum
      direction 0.000000 1.000000 0.000000
      length 7.508948
      axis 0.0 0.0 0.0 xyz
   end
   begin
      id 2
      name LeftUpLeg_dum
      direction 1.000000 0.000000 0.000000
      length 3.000560
      axis 0.0 0.0 0.0 xyz
   end
   begin
      id 3
      name RightUpLeg_dum
      direction -1.000000 0.000000 0.000000
      length 3.000560
      axis 0.0 0.0 0.0 xyz
   end
   begin
      id 4
      name Spine
      direction 0.000000 1.000000 0.000000
      length 0.000000
      axis 0.0 0.0 0.0 xyz
      dof rx ry rz
   end
   begin
      id 5
      name Spine_dum1
      direction 0.000000 1.000000 0.000000
      length 13.861154
      axis 0.0 0.0 0.0 xyz
   end
   begin
      id 6
      name Spine_dum2
      direction 0.000000 1.000000 0.000000
      length 8.204781
      axis 0.0 0.0 0.0 xyz
   end
   begin
      id 7
      name Spine_dum3
      direction 0.000000 1.000000 0.000000
      length 8.204781
      axis 0.0 0.0 0.0 xyz
   end
   begin
      id 8
      name Head
      direction 0.000000 1.000000 0.000000
      length 4.527550
      axis 0.0 0.0 0.0 xyz
      dof rx ry rz
   end
   begin
      id 9
      name LeftShoulder
      direction 1.000000 0.000000 0.000000
      length 6.635956
      axis 0.0 0.0 -90.0 xyz
      dof rx ry rz
   end
   begin
      id 10
      name LeftArm
      direction 1.000000 0.000000 0.000000
      length 10.274218
      axis 0.0 0.0 -90.0 xyz
      dof rx ry rz
   end
   begin
      id 11
      name LeftForeArm
      direction 1.000000 0.000000 0.000000
      length 8.522147
      axis 0.0 0.0 -90.0 xyz
      dof ry rz rx
   end
   begin
      id 12
      name LeftHand
      direction 0.000000 0.000000 0.000000
      length 0.000000
      axis 0.0 0.0 -90.0 xyz
      dof rx ry rz
   end
   begin
      id 13
      name LeftHand_dum1
      direction 0.000000 0.000000 0.000000
      length 0.000000
      axis 0.0 0.0 -90.0 xyz
   end
   begin
      id 14
      name LeftHand_dum2
      direction 1.000000 0.000000 0.000000
      length 3.937000
      axis 0.0 0.0 -90.0 xyz
   end
   begin
      id 15
      name LeftHandThumb1
      direction 0.000000 0.000000 1.000000
      length 3.937000
      axis 0.0 0.0 -90.0 xyz
      dof rx rz ry
   end
   begin
      id 16
      name RightShoulder
      direction -1.000000 0.000000 0.000000
      length 6.635956
      axis 0.0 0.0 90.0 xyz
      dof rx ry rz
   end
   begin
      id 17
      name RightArm
      direction -1.000000 0.000000 0.000000
      length 10.274218
      axis 0.0 0.0 90.0 xyz
      dof rx ry rz
   end
   begin
      id 18
      name RightForeArm
      direction -1.000000 0.000000 0.000000
      length 8.522147
      axis 0.0 0.0 90.0 xyz
      dof ry rz rx
   end
   begin
      id 19
      name RightHand
      direction 0.000000 0.000000 0.000000
      length 0.000000
      axis 0.0 0.0 90.0 xyz
      dof rx ry rz
   end
   begin
      id 20
      name RightHand_dum1
      direction 0.000000 0.000000 0.000000
      length 0.000000
      axis 0.0 0.0 90.0 xyz
   end
   begin
      id 21
      name RightHand_dum2
      direction -1.000000 0.000000 0.000000
      length 3.937000
      axis 0.0 0.0 90.0 xyz
   end
   begin
      id 22
      name RightHandThumb1
      direction 0.000000 0.000000 1.000000
      length 3.937000
      axis 0.0 0.0 90.0 xyz
      dof rx rz ry
   end
   begin
      id 23
      name LeftUpLeg
      direction 0.000000 -1.000000 0.000000
      length 16.490845
      axis 0.0 0.0 0.0 xyz
      dof rx ry rz
   end
   begin
      id 24
      name LeftLeg
      direction 0.000000 -1.000000 0.000000
      length 14.556576
      axis 0.0 0.0 0.0 xyz
      dof rx ry rz
   end
   begin
      id 25
      name LeftFoot
      direction 0.000000 -0.258819 0.965926
      length 4.831116
      axis 15.0 0.0 0.0 xyz
      dof rx ry rz
   end
   begin
      id 26
      name LeftToeBase
      direction 0.000000 0.000000 1.000000
      length 2.952750
      axis 0.0 0.0 0.0 xyz
      dof rx ry rz
   end
   begin
      id 27
      name RightUpLeg
      direction 0.000000 -1.000000 0.000000
      length 16.490845
      axis 0.0 0.0 0.0 xyz
      dof rx ry rz
   end
   begin
      id 28
      name RightLeg
      direction 0.000000 -1.000000 0.000000
      length 14.556576
      axis 0.0 0.0 0.0 xyz
      dof rx ry rz
   end
   begin
      id 29
      name RightFoot
      direction 0.000000 -0.258819 0.965926
      length 4.831116
      axis 15.0 0.0 0.0 xyz
      dof rx ry rz
   end
   begin
      id 30
      name RightToeBase
      direction 0.000000 0.000000 1.000000
      length 2.952750
      axis 0.0 0.0 0.0 xyz
      dof rx ry rz
   end
:hierarchy
   begin
      root Spine_dum LeftUpLeg_dum RightUpLeg_dum
      Spine_dum Spine
      LeftUpLeg_dum LeftUpLeg
      RightUpLeg_dum RightUpLeg
      Spine Spine_dum1 Spine_dum2 Spine_dum3
      Spine_dum1 Head
      Spine_dum2 LeftShoulder
      Spine_dum3 RightShoulder
      LeftShoulder LeftArm
      LeftArm LeftForeArm
      LeftForeArm LeftHand
      LeftHand LeftHand_dum1 LeftHand_dum2
      LeftHand_dum1 LeftHandThumb1
      RightShoulder RightArm
      RightArm RightForeArm
      RightForeArm RightHand
      RightHand RightHand_dum1 RightHand_dum2
      RightHand_dum1 RightHandThumb1
      LeftUpLeg LeftLeg
      LeftLeg LeftFoot
      LeftFoot LeftToeBase
      RightUpLeg RightLeg
      RightLeg RightFoot
      RightFoot RightToeBase
   end

# File created by Blade
# Date/Time:  Thu Sep 25 15:41:58 2014
# Frame Rate: 120.000 fps
#------------------------------------------------------
:FULLY-SPECIFIED
:DEGREES
85
root -1.641077 32.678672 -1.005256 7.843481 -38.307733 3.828065
Spine -6.245951 0.481950 3.059474
Head 8.472682 -36.070352 4.868545
LeftShoulder -10.747286 24.315669 10.325033
LeftArm 31.347475 24.629753 -69.821614
LeftForeArm 5.778050 -0.000000 20.676713
LeftHand -26.266944 -0.000000 8.219039
LeftHandThumb1 -26.253704 0.000000 33.147579
RightShoulder -19.642679 4.045702 -25.620197
RightArm -13.929428 -15.777391 78.644552
RightForeArm -23.205291 -0.000000 22.370274
RightHand -6.076973 -0.000000 3.614456
RightHandThumb1 -24.326973 -0.000000 -32.862282
LeftUpLeg -18.502948 -2.336203 9.901489
LeftLeg 51.696169 -0.000000 -0.000000
LeftFoot -13.093341 5.896352 -31.272905
LeftToeBase -4.068402 -0.000000 0.000000
RightUpLeg -16.828686 15.869699 -12.082866
RightLeg 19.961535 -0.000000 -0.000000
RightFoot -18.008023 10.574534 -8.685812
RightToeBase -4.455850 -0.000000 0.000000
86
root -1.558042 32.667867 -0.940718 7.823448 -39.072541 3.863748
Spine -6.350295 0.407493 3.029744
Head 8.657158 -35.829518 4.687426
LeftShoulder -10.795576 24.274018 10.277925
LeftArm 31.536191 24.722312 -69.630668
LeftForeArm 5.574712 0.000000 20.748946
LeftHand -26.100517 -0.000000 8.001224
LeftHandThumb1 -26.253704 0.000000 33.147579
RightShoulder -19.675368 4.024316 -25.572804
RightArm -14.197351 -16.448799 79.296596
RightForeArm -23.293621 -0.000000 22.351385
RightHand -5.820485 -0.000000 3.175786
RightHandThumb1 -24.326973 -0.000000 -32.862282
LeftUpLeg -18.042327 -2.684016 10.379738
LeftLeg 51.342626 -0.000000 -0.000000
LeftFoot -12.968484 5.825512 -31.196850
LeftToeBase -3.772524 -0.000000 0.000000
RightUpLeg -17.175712 16.281625 -12.416701
RightLeg 20.200562 -0.000000 -0.000000
RightFoot -18.000331 10.826192 -8.573269
RightToeBase -4.583936 -0.000000 0.000000
87
root -1.466946 32.655710 -0.874684 7.777208 -39.673113 3.932099
Spine -6.439128 0.198019 3.001715
Head 8.807887 -35.655365 4.463391
LeftShoulder -10.863477 24.300701 10.210725
LeftArm 31.828853 24.816451 -69.323990
LeftForeArm 5.404061 -0.000000 20.907335
LeftHand -26.013924 -0.000000 7.557502
LeftHandThumb1 -26.253704 0.000000 33.147579
RightShoulder -19.815105 3.998540 -25.559907
RightArm -14.374478 -17.273483 79.954881
RightForeArm -23.416546 -0.000000 22.234747
RightHand -5.655018 -0.000000 2.932745
RightHandThumb1 -24.326973 -0.000000 -32.862282
LeftUpLeg -17.597257 -3.186327 10.842709
LeftLeg 50.922475 -0.000000 -0.000000
LeftFoot -12.832777 5.686901 -31.195810
LeftToeBase -3.972985 -0.000000 0.000000
RightUpLeg -17.476181 16.536085 -12.757837
RightLeg 20.440917 -0.000000 -0.000000
RightFoot -18.020005 11.073775 -8.437469
RightToeBase -4.694613 -0.000000 0.000000
88
root -1.375576 32.644455 -0.801538 7.669854 -40.283210 4.074420
Spine -6.533274 -0.026107 2.898107
Head 8.999321 -35.442265 4.262913
LeftShoulder -10.916604 24.235809 10.196383
LeftArm 31.942190 24.699577 -69.269460
LeftForeArm 5.496687 -0.000000 20.965095
LeftHand -25.819886 -0.000000 7.011062
LeftHandThumb1 -26.253704 0.000000 33.147579
RightShoulder -19.894160 3.874009 -25.498511
RightArm -14.498755 -18.039982 80.604270
RightForeArm -23.591217 -0.000000 22.104856
RightHand -5.505635 -0.000000 2.959818
RightHandThumb1 -24.326973 -0.000000 -32.862282
LeftUpLeg -17.059761 -3.713645 11.221253
LeftLeg 50.355230 -0.000000 -0.000000
LeftFoot -12.739153 5.452016 -31.179470
LeftToeBase -3.831089 -0.000000 0.000000
RightUpLeg -17.760652 16.743695 -13.148138
RightLeg 20.693200 -0.000000 -0.000000
RightFoot -18.065821 11.353605 -8.335868
RightToeBase -4.811422 -0.000000 0.000000
89
root -1.282122 32.632876 -0.724859 7.573874 -40.900339 4.179223
Spine -6.624646 -0.258197 2.843188
Head 9.192256 -35.192139 4.076835
LeftShoulder -10.941465 24.212383 10.168148
LeftArm 31.999559 24.640610 -69.111025
LeftForeArm 5.524678 0.000000 21.210546
LeftHand -25.628658 -0.000000 6.388796
LeftHandThumb1 -26.253704 0.000000 33.147579
RightShoulder -19.883014 3.818935 -25.479495
RightArm -14.742664 -18.777501 81.269821
RightForeArm -23.819357 -0.000000 22.025166
RightHand -5.427044 -0.000000 3.595629
RightHandThumb1 -24.326973 -0.000000 -32.862282
LeftUpLeg -16.498989 -4.212110 11.599992
LeftLeg 49.747476 -0.000000 -0.000000
LeftFoot -12.561803 5.158974 -31.127619
LeftToeBase -4.115882 -0.000000 0.000000
RightUpLeg -18.009590 16.994370 -13.523257
RightLeg 20.885281 -0.000000 -0.000000
RightFoot -18.113697 11.686086 -7.940350
RightToeBase -4.782499 -0.000000 0.000000
